<?xml version="1.0" encoding="utf-8"?>
<!-- Generator: Adobe Illustrator 16.0.0, SVG Export Plug-In . SVG Version: 6.00 Build 0)  -->
<!DOCTYPE svg PUBLIC "-//W3C//DTD SVG 1.1//EN" "http://www.w3.org/Graphics/SVG/1.1/DTD/svg11.dtd">
<svg version="1.1" id="Layer_1" xmlns="http://www.w3.org/2000/svg" xmlns:xlink="http://www.w3.org/1999/xlink" x="0px" y="0px"
	 width="728px" height="227px" viewBox="63.5 -39.99 728 227" enable-background="new 63.5 -39.99 728 227" xml:space="preserve">
<title>logo-AO3</title>
<g id="Symbols">
	<g id="Nav-Home">
		<g id="Group">
			<path id="Line" fill="none" stroke="#D7D7D7" stroke-width="3" stroke-linecap="square" d="M405.686,57.128V176.46"/>
			<g id="Adaptive-Oncology">
				<text transform="matrix(1 0 0 1 441.2012 52.8088)" font-family="'Avenir-Heavy'" font-size="51.1421"> </text>
				<g enable-background="new    ">
					<path d="M470.097,75.461c-1.33-1.433-2.617-2.387-3.861-2.864c-1.245-0.477-2.498-0.716-3.759-0.716
						c-1.876,0-3.572,0.332-5.089,0.997c-1.518,0.665-2.821,1.586-3.913,2.762c-1.091,1.177-1.935,2.549-2.531,4.117
						s-0.895,3.256-0.895,5.062c0,1.943,0.298,3.733,0.895,5.37s1.44,3.052,2.531,4.245c1.092,1.193,2.396,2.131,3.913,2.812
						c1.517,0.683,3.213,1.023,5.089,1.023c1.465,0,2.889-0.35,4.27-1.049c1.381-0.698,2.668-1.815,3.861-3.35l5.319,3.784
						c-1.637,2.25-3.632,3.887-5.983,4.91c-2.354,1.022-4.859,1.534-7.518,1.534c-2.797,0-5.363-0.452-7.697-1.355
						c-2.336-0.903-4.348-2.182-6.035-3.836c-1.688-1.653-3.01-3.639-3.963-5.958c-0.955-2.318-1.433-4.892-1.433-7.723
						c0-2.897,0.478-5.531,1.433-7.901c0.953-2.369,2.275-4.39,3.963-6.061c1.688-1.67,3.699-2.957,6.035-3.86
						c2.334-0.903,4.9-1.355,7.697-1.355c2.454,0,4.73,0.435,6.826,1.304c2.098,0.869,4.049,2.345,5.856,4.424L470.097,75.461z"/>
					<path d="M484.621,93.054c0.204,1.841,0.92,3.272,2.147,4.296c1.228,1.022,2.71,1.534,4.45,1.534c1.533,0,2.82-0.314,3.86-0.946
						c1.04-0.63,1.952-1.423,2.736-2.378l4.397,3.324c-1.432,1.773-3.034,3.035-4.807,3.784c-1.773,0.75-3.631,1.125-5.574,1.125
						c-1.842,0-3.58-0.307-5.217-0.92c-1.637-0.614-3.052-1.483-4.244-2.608c-1.194-1.125-2.141-2.48-2.839-4.065
						c-0.699-1.586-1.048-3.351-1.048-5.294s0.349-3.707,1.048-5.293c0.698-1.585,1.645-2.94,2.839-4.065
						c1.192-1.125,2.607-1.995,4.244-2.608c1.637-0.614,3.375-0.921,5.217-0.921c1.704,0,3.264,0.299,4.68,0.896
						c1.414,0.597,2.625,1.457,3.631,2.582c1.005,1.125,1.789,2.515,2.352,4.168c0.563,1.654,0.845,3.555,0.845,5.703v1.688H484.621
						z M497.201,88.451c-0.033-1.808-0.597-3.23-1.688-4.271c-1.092-1.04-2.607-1.561-4.551-1.561c-1.842,0-3.299,0.529-4.373,1.586
						s-1.73,2.473-1.969,4.245H497.201z"/>
					<path d="M509.066,78.632h5.83v3.938h0.102c0.58-1.228,1.466-2.293,2.66-3.196c1.193-0.903,2.812-1.355,4.858-1.355
						c1.636,0,3.025,0.273,4.168,0.818c1.142,0.546,2.071,1.262,2.787,2.148s1.228,1.909,1.534,3.068s0.461,2.37,0.461,3.631v15.496
						h-6.138V90.752c0-0.682-0.034-1.439-0.103-2.275c-0.068-0.835-0.248-1.619-0.537-2.353s-0.741-1.347-1.355-1.842
						c-0.613-0.493-1.449-0.741-2.506-0.741c-1.022,0-1.884,0.171-2.582,0.512c-0.699,0.341-1.279,0.802-1.738,1.381
						c-0.461,0.58-0.793,1.245-0.998,1.994c-0.205,0.751-0.307,1.534-0.307,2.353v13.399h-6.137V78.632z"/>
					<path d="M535.557,83.848v-5.216h5.063v-7.109h6.138v7.109h6.75v5.216h-6.75v10.74c0,1.228,0.229,2.199,0.689,2.915
						c0.461,0.716,1.373,1.074,2.736,1.074c0.545,0,1.143-0.06,1.79-0.18c0.647-0.118,1.159-0.314,1.534-0.588v5.166
						c-0.648,0.307-1.44,0.519-2.378,0.639c-0.938,0.119-1.765,0.179-2.48,0.179c-1.637,0-2.976-0.179-4.015-0.536
						c-1.041-0.358-1.859-0.903-2.455-1.637c-0.597-0.733-1.006-1.645-1.227-2.736c-0.223-1.091-0.333-2.353-0.333-3.784V83.848
						H535.557z"/>
					<path d="M558.314,78.632h6.138v3.887h0.103c0.682-1.433,1.652-2.54,2.915-3.324c1.261-0.784,2.71-1.177,4.347-1.177
						c0.375,0,0.742,0.034,1.1,0.103s0.725,0.153,1.1,0.256v5.933c-0.512-0.136-1.015-0.247-1.509-0.333
						c-0.495-0.084-0.98-0.128-1.458-0.128c-1.432,0-2.582,0.265-3.451,0.793c-0.869,0.529-1.535,1.134-1.994,1.815
						c-0.461,0.683-0.768,1.364-0.922,2.046c-0.152,0.683-0.229,1.193-0.229,1.534v13.144h-6.138V78.632z"/>
					<path d="M593.552,99.805h-0.153c-0.887,1.398-2.012,2.412-3.375,3.043c-1.365,0.63-2.864,0.945-4.501,0.945
						c-1.125,0-2.225-0.153-3.299-0.46c-1.073-0.307-2.028-0.767-2.864-1.381c-0.836-0.613-1.508-1.381-2.02-2.301
						c-0.512-0.921-0.768-1.995-0.768-3.223c0-1.329,0.238-2.463,0.717-3.4c0.477-0.938,1.115-1.722,1.918-2.353
						c0.8-0.631,1.729-1.134,2.787-1.509c1.056-0.375,2.155-0.656,3.299-0.844c1.141-0.188,2.292-0.308,3.451-0.358
						c1.158-0.051,2.25-0.076,3.273-0.076h1.534v-0.665c0-1.534-0.528-2.686-1.585-3.452c-1.058-0.768-2.404-1.151-4.041-1.151
						c-1.296,0-2.506,0.23-3.631,0.69c-1.125,0.461-2.097,1.083-2.915,1.867l-3.222-3.222c1.363-1.398,2.957-2.404,4.781-3.018
						c1.824-0.614,3.708-0.921,5.651-0.921c1.739,0,3.204,0.196,4.398,0.588c1.192,0.393,2.182,0.896,2.966,1.509
						c0.784,0.614,1.389,1.322,1.816,2.123c0.426,0.801,0.732,1.61,0.92,2.429s0.299,1.611,0.332,2.378
						c0.034,0.768,0.052,1.441,0.052,2.021v14.115h-5.523V99.805z M593.193,92.185h-1.278c-0.853,0-1.808,0.034-2.864,0.102
						c-1.057,0.069-2.055,0.23-2.991,0.486c-0.938,0.256-1.731,0.631-2.378,1.125c-0.648,0.494-0.973,1.185-0.973,2.071
						c0,0.58,0.129,1.065,0.385,1.457c0.256,0.393,0.588,0.726,0.996,0.998c0.41,0.272,0.87,0.469,1.381,0.588
						c0.512,0.12,1.023,0.179,1.535,0.179c2.113,0,3.674-0.503,4.68-1.509c1.005-1.005,1.508-2.378,1.508-4.116V92.185z"/>
					<path d="M605.773,64.517h6.137v38.663h-6.137V64.517z"/>
				</g>
				<g enable-background="new    ">
					<path d="M474.238,151.254c0,2.183-0.375,4.151-1.125,5.907s-1.772,3.247-3.068,4.475s-2.83,2.174-4.603,2.838
						c-1.772,0.665-3.7,0.998-5.778,0.998c-2.08,0-4.008-0.333-5.779-0.998c-1.773-0.664-3.316-1.61-4.629-2.838
						s-2.336-2.719-3.068-4.475c-0.733-1.756-1.1-3.725-1.1-5.907v-22.912h6.443v22.707c0,0.888,0.137,1.816,0.41,2.788
						c0.271,0.972,0.724,1.866,1.355,2.685c0.63,0.818,1.465,1.492,2.506,2.021c1.039,0.528,2.326,0.792,3.861,0.792
						c1.533,0,2.82-0.264,3.861-0.792c1.039-0.528,1.874-1.202,2.506-2.021c0.63-0.818,1.082-1.713,1.354-2.685
						s0.409-1.9,0.409-2.788v-22.707h6.443V151.254z"/>
					<path d="M494.695,146.805c-1.194-1.67-2.797-2.506-4.808-2.506c-0.818,0-1.62,0.204-2.403,0.613
						c-0.785,0.409-1.177,1.074-1.177,1.995c0,0.75,0.323,1.296,0.972,1.636c0.647,0.342,1.466,0.632,2.455,0.87
						c0.988,0.238,2.054,0.485,3.196,0.741c1.142,0.256,2.207,0.648,3.196,1.176c0.988,0.529,1.807,1.254,2.455,2.174
						c0.646,0.921,0.972,2.183,0.972,3.785c0,1.466-0.315,2.702-0.946,3.707c-0.631,1.007-1.449,1.815-2.455,2.43
						c-1.006,0.613-2.14,1.057-3.4,1.329c-1.262,0.273-2.523,0.409-3.785,0.409c-1.91,0-3.665-0.272-5.268-0.817
						c-1.603-0.546-3.035-1.535-4.296-2.967l4.092-3.836c0.784,0.888,1.628,1.611,2.531,2.174s2.003,0.844,3.299,0.844
						c0.442,0,0.903-0.051,1.381-0.153s0.921-0.272,1.329-0.512c0.41-0.237,0.742-0.537,0.998-0.895
						c0.256-0.358,0.383-0.775,0.383-1.253c0-0.852-0.324-1.483-0.971-1.893c-0.648-0.409-1.467-0.741-2.455-0.997
						c-0.99-0.256-2.055-0.494-3.197-0.716s-2.207-0.579-3.195-1.074c-0.99-0.494-1.809-1.185-2.455-2.071
						c-0.648-0.886-0.972-2.113-0.972-3.683c0-1.362,0.281-2.548,0.844-3.554s1.304-1.833,2.225-2.48s1.978-1.125,3.171-1.432
						c1.193-0.308,2.403-0.461,3.631-0.461c1.637,0,3.256,0.281,4.858,0.844s2.897,1.526,3.888,2.89L494.695,146.805z"/>
					<path d="M509.219,154.425c0.204,1.841,0.92,3.272,2.147,4.296c1.228,1.022,2.71,1.534,4.45,1.534
						c1.533,0,2.82-0.314,3.86-0.946c1.04-0.63,1.952-1.423,2.736-2.378l4.397,3.324c-1.432,1.773-3.034,3.035-4.807,3.784
						c-1.773,0.75-3.631,1.125-5.574,1.125c-1.842,0-3.58-0.307-5.217-0.92c-1.637-0.614-3.052-1.483-4.244-2.608
						c-1.194-1.125-2.141-2.48-2.839-4.065c-0.699-1.586-1.048-3.351-1.048-5.294s0.349-3.707,1.048-5.293
						c0.698-1.585,1.645-2.94,2.839-4.065c1.192-1.125,2.607-1.995,4.244-2.608c1.637-0.614,3.375-0.921,5.217-0.921
						c1.704,0,3.264,0.299,4.68,0.896c1.414,0.597,2.625,1.457,3.631,2.582c1.005,1.125,1.789,2.515,2.352,4.168
						c0.563,1.654,0.845,3.555,0.845,5.703v1.688H509.219z M521.799,149.823c-0.033-1.808-0.597-3.23-1.688-4.271
						c-1.092-1.04-2.607-1.561-4.551-1.561c-1.842,0-3.299,0.529-4.373,1.586s-1.73,2.473-1.969,4.245H521.799z"/>
					<path d="M533.664,140.003h6.137v3.887h0.103c0.682-1.433,1.653-2.54,2.915-3.324s2.711-1.177,4.348-1.177
						c0.375,0,0.741,0.034,1.1,0.103c0.357,0.068,0.724,0.153,1.1,0.256v5.933c-0.512-0.136-1.016-0.247-1.51-0.333
						c-0.494-0.084-0.98-0.128-1.457-0.128c-1.432,0-2.582,0.265-3.452,0.793c-0.869,0.529-1.534,1.134-1.994,1.815
						c-0.46,0.683-0.768,1.364-0.921,2.046c-0.153,0.683-0.23,1.193-0.23,1.534v13.144h-6.137V140.003z"/>
					<path d="M569.258,128.342h14.27c2.385,0,4.688,0.367,6.903,1.1c2.216,0.734,4.177,1.851,5.882,3.351
						c1.704,1.5,3.068,3.384,4.091,5.65c1.022,2.269,1.534,4.936,1.534,8.004c0,3.104-0.588,5.788-1.764,8.055
						c-1.177,2.269-2.694,4.143-4.553,5.626c-1.857,1.483-3.92,2.592-6.188,3.324c-2.268,0.733-4.492,1.1-6.674,1.1h-13.502V128.342
						z M580.51,158.721c2.011,0,3.912-0.23,5.701-0.69c1.791-0.46,3.351-1.177,4.68-2.148c1.33-0.972,2.379-2.232,3.146-3.784
						c0.768-1.551,1.151-3.435,1.151-5.651c0-2.182-0.342-4.057-1.023-5.625s-1.629-2.839-2.838-3.811
						c-1.211-0.972-2.643-1.688-4.297-2.147c-1.653-0.461-3.469-0.69-5.446-0.69h-5.881v24.548H580.51z"/>
					<path d="M606.744,131.666c0-0.988,0.367-1.849,1.1-2.582c0.733-0.733,1.662-1.1,2.787-1.1c1.126,0,2.072,0.35,2.839,1.048
						c0.767,0.699,1.151,1.578,1.151,2.634c0,1.058-0.385,1.936-1.151,2.634c-0.767,0.699-1.713,1.049-2.839,1.049
						c-1.125,0-2.054-0.366-2.787-1.1C607.111,133.517,606.744,132.656,606.744,131.666z M607.614,140.003h6.137v24.548h-6.137
						V140.003z"/>
					<path d="M620.809,140.003h6.137v3.887h0.102c0.682-1.433,1.654-2.54,2.916-3.324c1.261-0.784,2.711-1.177,4.347-1.177
						c0.375,0,0.741,0.034,1.1,0.103s0.724,0.153,1.1,0.256v5.933c-0.511-0.136-1.015-0.247-1.509-0.333
						c-0.494-0.084-0.98-0.128-1.457-0.128c-1.432,0-2.583,0.265-3.453,0.793c-0.869,0.529-1.533,1.134-1.994,1.815
						c-0.46,0.683-0.768,1.364-0.92,2.046c-0.154,0.683-0.23,1.193-0.23,1.534v13.144h-6.137V140.003z"/>
					<path d="M644.691,154.425c0.205,1.841,0.922,3.272,2.148,4.296c1.228,1.022,2.711,1.534,4.449,1.534
						c1.535,0,2.821-0.314,3.861-0.946c1.039-0.63,1.951-1.423,2.736-2.378l4.398,3.324c-1.432,1.773-3.035,3.035-4.808,3.784
						c-1.773,0.75-3.632,1.125-5.575,1.125c-1.84,0-3.579-0.307-5.216-0.92c-1.637-0.614-3.052-1.483-4.245-2.608
						s-2.14-2.48-2.838-4.065c-0.699-1.586-1.049-3.351-1.049-5.294s0.35-3.707,1.049-5.293c0.698-1.585,1.645-2.94,2.838-4.065
						s2.608-1.995,4.245-2.608c1.637-0.614,3.376-0.921,5.216-0.921c1.705,0,3.266,0.299,4.68,0.896
						c1.415,0.597,2.625,1.457,3.631,2.582s1.791,2.515,2.354,4.168c0.562,1.654,0.844,3.555,0.844,5.703v1.688H644.691z
						 M657.273,149.823c-0.035-1.808-0.598-3.23-1.688-4.271c-1.092-1.04-2.609-1.561-4.553-1.561c-1.841,0-3.299,0.529-4.372,1.586
						c-1.074,1.057-1.731,2.473-1.97,4.245H657.273z"/>
					<path d="M685.912,147.367c-0.717-0.75-1.467-1.347-2.25-1.79c-0.785-0.442-1.586-0.665-2.404-0.665
						c-1.125,0-2.131,0.205-3.018,0.614c-0.887,0.408-1.645,0.954-2.275,1.636c-0.631,0.683-1.108,1.467-1.432,2.353
						c-0.324,0.888-0.486,1.808-0.486,2.762c0,0.955,0.162,1.876,0.486,2.762c0.323,0.888,0.801,1.671,1.432,2.353
						c0.631,0.683,1.389,1.228,2.275,1.637s1.893,0.614,3.018,0.614c0.954,0,1.842-0.196,2.66-0.589
						c0.818-0.392,1.516-0.963,2.096-1.713l4.092,4.398c-0.613,0.613-1.322,1.143-2.122,1.585c-0.802,0.443-1.611,0.802-2.43,1.074
						c-0.817,0.272-1.603,0.468-2.353,0.588c-0.75,0.119-1.398,0.179-1.943,0.179c-1.841,0-3.58-0.307-5.217-0.92
						c-1.637-0.614-3.051-1.483-4.244-2.608s-2.141-2.48-2.838-4.065c-0.699-1.586-1.049-3.351-1.049-5.294s0.35-3.707,1.049-5.293
						c0.697-1.585,1.645-2.94,2.838-4.065s2.607-1.995,4.244-2.608c1.637-0.614,3.376-0.921,5.217-0.921
						c1.568,0,3.146,0.299,4.73,0.896c1.586,0.597,2.975,1.543,4.168,2.838L685.912,147.367z"/>
					<path d="M690.924,145.219v-5.216h5.062v-7.109h6.137v7.109h6.751v5.216h-6.751v10.74c0,1.228,0.23,2.199,0.691,2.915
						c0.459,0.716,1.371,1.074,2.735,1.074c0.545,0,1.142-0.06,1.79-0.18c0.647-0.118,1.158-0.314,1.534-0.588v5.166
						c-0.647,0.307-1.44,0.519-2.378,0.639c-0.938,0.119-1.765,0.179-2.48,0.179c-1.637,0-2.975-0.179-4.015-0.536
						c-1.04-0.358-1.858-0.903-2.454-1.637c-0.598-0.733-1.007-1.645-1.229-2.736c-0.222-1.091-0.332-2.353-0.332-3.784v-11.252
						H690.924z"/>
					<path d="M712.454,152.277c0-1.943,0.349-3.707,1.048-5.293c0.699-1.585,1.645-2.94,2.839-4.065
						c1.192-1.125,2.608-1.995,4.245-2.608c1.637-0.614,3.375-0.921,5.216-0.921s3.58,0.307,5.217,0.921
						c1.636,0.613,3.051,1.483,4.245,2.608c1.192,1.125,2.139,2.48,2.838,4.065c0.698,1.586,1.049,3.35,1.049,5.293
						s-0.351,3.708-1.049,5.294c-0.699,1.585-1.646,2.94-2.838,4.065c-1.194,1.125-2.609,1.994-4.245,2.608
						c-1.637,0.613-3.376,0.92-5.217,0.92s-3.579-0.307-5.216-0.92c-1.637-0.614-3.053-1.483-4.245-2.608
						c-1.194-1.125-2.14-2.48-2.839-4.065C712.803,155.985,712.454,154.22,712.454,152.277z M718.591,152.277
						c0,0.955,0.161,1.876,0.485,2.762c0.324,0.888,0.801,1.671,1.433,2.353c0.63,0.683,1.389,1.228,2.276,1.637
						c0.886,0.409,1.892,0.614,3.017,0.614c1.126,0,2.13-0.205,3.018-0.614c0.886-0.409,1.645-0.954,2.276-1.637
						c0.63-0.682,1.107-1.465,1.432-2.353c0.323-0.886,0.486-1.807,0.486-2.762c0-0.954-0.163-1.874-0.486-2.762
						c-0.324-0.886-0.802-1.67-1.432-2.353c-0.632-0.682-1.391-1.228-2.276-1.636c-0.888-0.409-1.892-0.614-3.018-0.614
						c-1.125,0-2.131,0.205-3.017,0.614c-0.888,0.408-1.646,0.954-2.276,1.636c-0.632,0.683-1.108,1.467-1.433,2.353
						C718.752,150.403,718.591,151.323,718.591,152.277z"/>
					<path d="M744.877,140.003h6.137v3.887h0.103c0.682-1.433,1.653-2.54,2.915-3.324s2.711-1.177,4.348-1.177
						c0.374,0,0.741,0.034,1.1,0.103c0.357,0.068,0.724,0.153,1.1,0.256v5.933c-0.512-0.136-1.016-0.247-1.509-0.333
						c-0.495-0.084-0.98-0.128-1.458-0.128c-1.432,0-2.583,0.265-3.452,0.793c-0.869,0.529-1.534,1.134-1.994,1.815
						c-0.461,0.683-0.768,1.364-0.921,2.046c-0.153,0.683-0.23,1.193-0.23,1.534v13.144h-6.137V140.003z"/>
					<path d="M761.446,140.003h6.751l6.853,17.03h0.103l6.137-17.03h6.394l-11.609,29.815c-0.443,1.159-0.93,2.174-1.458,3.043
						s-1.15,1.603-1.866,2.199c-0.716,0.596-1.56,1.04-2.532,1.33c-0.972,0.289-2.14,0.435-3.503,0.435
						c-1.603,0-3.171-0.205-4.705-0.614l0.768-5.523c0.477,0.171,0.979,0.315,1.509,0.435c0.527,0.119,1.064,0.18,1.61,0.18
						c0.75,0,1.381-0.069,1.893-0.205c0.512-0.137,0.946-0.35,1.304-0.639c0.358-0.29,0.656-0.665,0.896-1.125
						c0.238-0.461,0.494-1.016,0.767-1.662l1.177-2.916L761.446,140.003z"/>
				</g>
			</g>
			<g id="OICR-Logo_CMYK_ENGLISH">
				<path id="Fill-1" fill="#61B345" d="M197.139-12.767V-36.63h-0.284c-5.682,0-11.081,0.278-16.763,1.137l3.125,23.582
					C187.763-12.481,192.309-12.767,197.139-12.767L197.139-12.767"/>
				<path id="Fill-2" fill="#61B345" d="M117.585,80.71l23.298,3.126c0.284-2.559,0.853-4.831,1.421-7.104
					c0.568-2.271,1.42-4.547,2.273-6.813l-43.755-18.474c-1.705,4.268-3.125,8.521-4.262,12.785l-23.298-6.25
					c-1.42,5.396-2.557,10.797-3.125,16.479l23.866,3.125L117.585,80.71"/>
				<path id="Fill-3" fill="#61B345" d="M230.098-32.086L223.847-9.07c4.262,1.137,8.808,2.557,12.786,4.262l9.092-21.877
					C240.894-28.961,235.496-30.666,230.098-32.086"/>
				<path id="Fill-4" fill="#61B345" d="M148.27,154.298c-2.841-1.988-5.398-4.546-7.955-6.812l-17.047,17.048
					c3.125,3.125,6.535,6.251,10.228,9.092L148.27,154.298"/>
				<path id="Fill-5" fill="#61B345" d="M119.858,111.679l22.73-5.967c-1.421-4.83-1.989-9.66-1.989-14.49h-23.298
					c0,3.41,0.284,7.104,0.853,10.521l-23.866,3.125c-0.568-4.547-0.853-9.1-0.853-13.646H69c0,5.688,0.284,11.081,1.137,16.479
					c0.568,5.396,1.705,11.081,3.125,16.479L119.858,111.679"/>
				<path id="Fill-6" fill="#61B345" d="M151.964,125.321c-1.421-1.987-2.841-3.979-3.978-6.251
					c-1.136-1.987-2.273-4.269-3.125-6.533l-21.877,9.092c1.42,3.125,2.841,6.535,4.546,9.376l-41.482,24.149
					c2.841,4.83,5.967,9.377,9.376,13.923c3.41,4.546,7.103,8.521,11.081,12.502l17.047-17.048
					c-3.41-3.409-6.251-6.819-9.092-10.229L151.964,125.321"/>
				<path id="Fill-7" fill="#61B345" d="M211.629,36.388c2.273,0.566,4.546,1.42,6.819,2.271l9.092-21.6
					c-3.125-1.42-6.535-2.558-9.944-3.407L211.629,36.388"/>
				<path id="Fill-8" fill="#61B345" d="M186.343,11.953l-3.125-23.582c-4.546,0.562-8.808,1.42-13.354,2.559l-6.25-23.016
					c-5.398,1.421-10.797,3.125-15.911,5.396l18.468,44.039c-3.125,1.42-6.25,2.84-9.376,4.545l11.649,20.174
					c1.989-1.137,4.262-2.271,6.535-3.404c2.273-0.854,4.546-1.705,7.103-2.271c2.273-0.563,4.83-1.139,7.104-1.422
					c2.557-0.281,5.114-0.566,7.671-0.566h0.284V11.105h-0.284C193.162,11.101,189.752,11.384,186.343,11.953"/>
				<path id="Fill-9" fill="#61B345" d="M197.139,11.101c3.41,0,6.819,0.282,10.513,0.566l3.125-23.866
					c-4.546-0.565-9.092-0.853-13.638-0.853V11.101"/>
				<path id="Fill-10" fill="#61B345" d="M133.496,8.827l-14.49-19.036c-4.546,3.41-8.523,7.104-12.501,11.081l33.811,33.812
					c2.557-2.56,5.114-4.83,7.955-6.819c2.841-2.271,5.683-3.979,8.808-5.966L145.146,1.16
					C140.883,3.431,137.189,5.985,133.496,8.827"/>
				<path id="Fill-11" fill="#61B345" d="M151.964,56.844c1.42-1.986,3.125-3.978,4.83-5.682l-16.479-16.479
					c-2.557,2.562-4.83,5.112-6.819,7.955L151.964,56.844"/>
				<path id="Fill-12" fill="#61B345" d="M95.423,13.373c-3.409,4.546-6.535,9.092-9.376,13.922l20.741,11.936l20.741,12.222
					c1.705-3.125,3.693-5.972,5.683-8.812L95.423,13.373"/>
				<path id="Fill-13" fill="#61B345" d="M261.067-19.301l-23.866,41.191c3.125,1.705,5.966,3.692,8.808,5.967l28.696-37.782
					C270.443-13.334,265.897-16.459,261.067-19.301"/>
				<path id="Fill-14" fill="#1A1919" d="M249.134,1.156c-3.978-2.273-7.956-4.268-12.217-5.973l-9.376,22.162
					c3.125,1.42,6.25,2.842,9.376,4.547L249.134,1.156"/>
				<path id="Fill-15" fill="#1A1919" d="M207.652,11.953l-3.125,23.014c2.557,0.284,4.83,0.854,7.103,1.422l5.967-22.445
					C214.471,13.089,211.062,12.235,207.652,11.953"/>
				<path id="Fill-16" fill="#1A1919" d="M196.855-12.767c-4.546,0-9.092,0.283-13.638,0.854l3.125,23.866
					c3.409-0.568,7.103-0.568,10.796-0.854h0.284L196.855-12.767L196.855-12.767"/>
				<path id="Fill-17" fill="#1A1919" d="M100.822,51.444l22.162,9.099c1.42-3.125,2.841-6.25,4.546-9.099l-20.741-11.932
					C104.515,43.206,102.526,47.185,100.822,51.444"/>
				<path id="Fill-18" fill="#1A1919" d="M123.552,164.53l17.047-17.054c-2.557-2.558-4.831-5.106-7.104-7.949l-19.036,14.771
					C117.301,157.707,120.142,161.117,123.552,164.53"/>
				<path id="Fill-19" fill="#1A1919" d="M127.529,51.444l20.173,11.649c1.136-2.272,2.557-4.263,3.978-6.252l-18.468-14.204
					C131.223,45.479,129.518,48.319,127.529,51.444"/>
				<path id="Fill-20" fill="#1A1919" d="M117.017,90.938L117.017,90.938h23.298l0,0c0-2.558,0.284-4.823,0.568-7.388l-23.298-3.126
					C117.301,84.12,117.017,87.531,117.017,90.938"/>
				<path id="Fill-21" fill="#1A1919" d="M101.106,130.716l22.162-9.092c-1.421-3.125-2.557-6.535-3.41-9.944l-23.014,6.251
					C97.696,122.476,99.117,126.74,101.106,130.716"/>
				<path id="Fill-22" fill="#1A1919" d="M148.27,27.862l14.207,18.474c1.989-1.421,3.978-2.841,6.25-4.269l-11.649-20.172
					C153.668,23.603,150.827,25.59,148.27,27.862"/>
				<path id="Fill-23" fill="#1A1919" d="M176.398,146.911c1.705,0,3.125-0.568,4.262-1.705c0.568-0.568,0.853-1.138,1.137-1.989
					c0.284-0.852,0.568-1.704,0.568-2.271c0-0.854,0-1.704-0.568-2.272c-0.284-0.853-0.568-1.42-1.137-1.988
					c-1.137-1.137-2.557-1.699-4.262-1.699c-0.853,0-1.705,0.278-2.273,0.562s-1.421,0.854-1.989,1.421
					c-0.568,0.568-0.853,1.144-1.137,1.988c-0.284,0.853-0.568,1.705-0.568,2.271c0,0.854,0,1.705,0.568,2.272
					c0.284,0.853,0.568,1.421,1.137,1.989c0.568,0.562,1.136,1.137,1.989,1.421C174.693,146.911,175.546,146.911,176.398,146.911z
					 M176.398,148.903c-1.137,0-2.273-0.283-3.41-0.567c-1.989-0.854-3.409-2.271-4.262-4.262c-0.853-1.988-0.853-4.27,0-6.534
					c0.853-1.989,2.273-3.41,4.262-4.263c1.989-0.854,4.546-0.854,6.535,0c0.853,0.276,1.989,0.853,2.557,1.697
					c3.125,3.409,3.125,8.523,0,11.649c-0.852,0.853-1.705,1.42-2.557,1.704C178.671,148.903,177.535,148.903,176.398,148.903z"/>
				<path id="Fill-24" fill="#1A1919" d="M187.195,138.103h1.989v1.704l0,0c0.284-0.562,0.852-1.137,1.42-1.421
					c1.136-0.562,2.273-0.562,3.693-0.276c0.568,0,0.853,0.276,1.137,0.562c0.284,0.284,0.568,0.854,0.853,1.137
					c0.284,0.568,0.284,1.145,0.284,1.705v6.818h-1.989v-5.966c0-0.284,0-0.854-0.284-1.145c0-0.277-0.284-0.562-0.568-0.853
					s-0.568-0.284-0.853-0.568c-0.284,0-0.568,0-0.853,0s-0.852,0-1.136,0.284c-0.284,0-0.568,0.284-0.853,0.567
					c-0.285,0.281-0.568,0.562-0.568,1.138c-0.284,0.567-0.284,1.137-0.284,1.42v5.397h-1.989L187.195,138.103"/>
				<path id="Fill-25" fill="#1A1919" d="M205.095,139.807h-2.841v4.83c0,0.284,0,0.568,0,0.854c0,0.285,0,0.562,0.284,0.853
					c0,0.284,0.284,0.568,0.568,0.568s0.568,0.283,0.852,0.283h0.853c0.284,0,0.568-0.283,0.568-0.283v1.704
					c-0.284,0-0.568,0.283-0.853,0.283h-0.852c-0.568,0-1.137,0-1.705-0.283c-0.284-0.284-0.568-0.568-0.852-0.854
					c-0.284-0.277-0.284-0.853-0.284-1.137s0-0.854,0-1.138v-5.397h-2.273v-1.705h2.273v-2.841h1.989v2.841h2.841L205.095,139.807"
					/>
				<path id="Fill-26" fill="#1A1919" d="M213.334,143.501c-0.568,0-0.853,0-1.421,0s-0.852,0-1.42,0.284
					c-0.284,0-0.568,0.283-0.853,0.562c-0.285,0.284-0.284,0.568-0.284,1.145c0,0.562,0.284,1.137,0.568,1.137
					c0.568,0.284,1.137,0.567,1.705,0.284c0.568,0,0.853,0,1.421-0.284c0.284-0.284,0.568-0.568,0.852-0.854
					c0.284-0.284,0.284-0.567,0.568-0.854c0-0.284,0-0.854,0-1.137v-0.568L213.334,143.501z M207.652,139.527
					c0.568-0.567,1.136-0.854,1.989-1.144c0.853-0.282,1.421-0.282,2.273-0.282c0.568,0,1.421,0,1.989,0.282
					c0.568,0.284,0.853,0.568,1.421,0.854c0.284,0.284,0.568,0.562,0.852,1.138c0.284,0.284,0.284,0.853,0.284,1.421v5.397
					c0,0.277,0,0.562,0,1.137c0,0.283,0,0.563,0,0.853h-1.705c0-0.562,0-1.137,0-1.697l0,0c-0.284,0.562-0.853,1.137-1.42,1.42
					c-0.568,0.277-1.421,0.562-1.989,0.562c-0.568,0-0.852,0-1.42-0.284c-0.284-0.276-0.568-0.276-0.853-0.562
					c-0.285-0.284-0.568-0.568-0.852-0.854c-0.284-0.276-0.284-0.853-0.284-1.421c0-0.562,0-1.137,0.568-1.705
					c0.284-0.562,0.852-0.853,1.136-1.137c0.568-0.284,1.137-0.567,1.705-0.567c0.853,0,1.421-0.276,2.273-0.276h1.421v-0.568
					c0-0.284,0-0.566,0-0.853c-0.284-0.568-0.568-1.145-1.137-1.145c-1.136-0.562-1.42-0.562-1.989-0.562c-0.284,0-0.568,0-0.852,0
					s-0.568,0.276-0.853,0.276s-0.568,0.284-0.568,0.284l-0.568,0.568L207.652,139.527L207.652,139.527z"/>
				<path id="Fill-27" fill="#1A1919" d="M219.017,138.103h1.989v1.704l0,0c0-0.277,0.284-0.562,0.568-0.853
					c0.284-0.285,0.568-0.284,0.568-0.568c0.284-0.276,0.568-0.276,0.853-0.276c0.284,0,0.568,0,0.852,0c0.284,0,0.568,0,0.853,0
					v2.271h-0.568h-0.568c-0.852,0-1.705,0.284-2.273,0.854c-0.568,0.854-0.852,1.698-0.852,2.558v5.114h-1.989L219.017,138.103"/>
				<path id="Fill-28" fill="#1A1919" d="M227.256,148.615h1.989V138.1h-1.989V148.615z M226.688,134.409
					c0-0.854,0.568-1.421,1.42-1.421c0.853,0,1.421,0.562,1.421,1.421c0,0.853-0.568,1.421-1.421,1.421
					c-0.284,0-0.852-0.284-1.136-0.284C226.688,135.261,226.688,134.697,226.688,134.409z"/>
				<path id="Fill-29" fill="#1A1919" d="M233.791,143.217c0,0.568,0,1.137,0.284,1.421c0.284,0.284,0.284,0.854,0.568,1.145
					c0.284,0.276,0.568,0.562,1.136,0.853c0.568,0.284,0.853,0.284,1.421,0.284c0.568,0,0.852,0,1.42-0.284
					c0.853-0.284,1.421-1.137,1.705-1.989c0.284-0.562,0.284-0.853,0.284-1.421c0-0.562,0-0.852-0.284-1.42
					c0-0.562-0.284-0.853-0.568-1.137c-0.284-0.284-0.568-0.568-1.137-0.854c-0.569-0.277-0.853-0.276-1.42-0.276
					c-0.568,0-0.853,0-1.421,0.276c-0.284,0.284-0.852,0.284-1.136,0.854c-0.284,0.284-0.568,0.853-0.568,1.137
					C233.791,142.365,233.791,142.933,233.791,143.217z M231.802,143.217c0-1.42,0.568-2.841,1.42-3.688
					c1.137-1.144,2.557-1.703,3.978-1.703c0.852,0,1.42,0,2.273,0.562c0.568,0.284,1.136,0.568,1.705,1.145
					c0.569,0.562,0.853,1.137,1.137,1.703c0.284,0.562,0.568,1.423,0.568,2.271c0,0.854,0,1.421-0.568,2.273
					c-0.284,0.562-0.568,1.137-1.137,1.703c-0.568,0.562-1.136,0.854-1.705,1.138c-0.569,0.284-1.421,0.562-2.273,0.562
					c-1.421,0-2.841-0.562-3.978-1.698c-0.568-0.566-0.852-1.143-1.136-1.703C231.802,144.922,231.518,144.073,231.802,143.217
					L231.802,143.217z"/>
				<polygon id="Fill-30" fill="#1A1919" points="251.975,148.615 254.248,148.615 254.248,132.99 251.975,132.99 				"/>
				<path id="Fill-31" fill="#1A1919" d="M257.373,138.103h1.989v1.704l0,0c0.284-0.562,0.852-1.137,1.42-1.421
					c1.137-0.562,2.273-0.562,3.694-0.276c0.568,0,0.852,0.276,1.136,0.562c0.284,0.284,0.568,0.854,0.853,1.137
					c0.284,0.568,0.284,1.145,0.284,1.705v6.818h-1.989v-5.966c0-0.284,0-0.854-0.284-1.145c-0.284-0.562-0.568-1.137-1.421-1.421
					c-0.284,0-0.568,0-0.853,0c-0.284,0-0.852,0-1.136,0.284c-0.284,0-0.568,0.284-0.853,0.567
					c-0.285,0.281-0.568,0.562-0.568,1.138c0,0.574-0.284,0.854-0.284,1.42v5.397h-1.989L257.373,138.103"/>
				<path id="Fill-32" fill="#1A1919" d="M275.273,140.66c-0.284-0.284-0.568-0.568-0.853-0.854
					c-0.284-0.277-0.852-0.277-1.136-0.277c-0.568,0-0.853,0-1.137,0.277c-0.284,0.284-0.568,0.568-0.568,0.854
					c0,0.285,0,0.562,0.284,0.853c0.284,0.284,0.568,0.284,0.568,0.568c0.284,0,0.568,0.284,0.853,0.284l0.853,0.283
					c0.284,0,0.852,0.277,1.136,0.277s0.568,0.283,0.853,0.567c0.285,0.283,0.568,0.565,0.568,0.853
					c0.284,0.284,0.284,0.854,0.284,1.145c0,0.562,0,1.137-0.284,1.421c-0.284,0.283-0.568,0.853-0.852,1.136
					c-0.284,0.284-0.853,0.567-1.421,0.567s-1.136,0.277-1.42,0.277c-0.853,0-1.42,0-2.273-0.277
					c-0.853-0.283-1.421-0.854-1.705-1.42l1.42-1.144c0.284,0.284,0.568,0.568,1.137,0.854c0.568,0.283,0.852,0.283,1.42,0.283
					h0.568c0.284,0,0.568,0,0.568-0.283c0.284,0,0.284-0.283,0.568-0.567c0-0.284,0.284-0.284,0.284-0.562
					c0-0.284,0-0.567-0.284-0.567c-0.284-0.284-0.284-0.284-0.568-0.568c-0.284,0-0.568-0.284-0.853-0.284l-0.853-0.276
					l-1.136-0.284c-0.284,0-0.568-0.284-0.853-0.568c-0.284-0.278-0.568-0.562-0.568-0.852c-0.284-0.284-0.284-0.854-0.284-1.421
					c0-0.568,0-0.854,0.284-1.421c0.284-0.284,0.568-0.854,0.853-0.854c0.284-0.284,0.853-0.562,1.136-0.562
					c0.568,0,0.853-0.284,1.421-0.284c0.568,0,1.42,0,1.989,0.284c0.568,0.275,1.137,0.852,1.42,1.42L275.273,140.66"/>
				<path id="Fill-33" fill="#1A1919" d="M285.501,139.807h-2.841v5.688c0,0.283,0,0.562,0.284,0.853
					c0,0.284,0.284,0.284,0.568,0.568c0.284,0,0.568,0.284,0.852,0.284h0.568c0.284,0,0.568,0,0.568-0.284v1.704
					c-0.284,0-0.568,0.283-0.853,0.283h-0.852c-0.568,0-1.137,0-1.705-0.283c-0.284-0.284-0.568-0.568-0.852-0.854
					c-0.284-0.277-0.284-0.853-0.284-1.137c0-0.568,0-0.854,0-1.137v-5.398h-2.273v-1.705h2.273v-2.841h1.989v2.841h2.841
					L285.501,139.807"/>
				<path id="Fill-34" fill="#1A1919" d="M287.774,148.615h1.989V138.1h-1.989V148.615z M287.206,134.409
					c0-0.854,0.568-1.421,1.421-1.421c0.852,0,1.42,0.562,1.42,1.421c0,0.853-0.568,1.421-1.42,1.421
					c-0.284,0-0.853-0.284-1.137-0.284C287.49,135.261,287.206,134.697,287.206,134.409z"/>
				<path id="Fill-35" fill="#1A1919" d="M298.571,139.807h-2.841v4.83c0,0.284,0,0.568,0,0.854c0,0.285,0,0.562,0.284,0.853
					c0,0.284,0.284,0.284,0.568,0.568c0.284,0,0.568,0.283,0.853,0.283h0.853c0.284,0,0.568-0.283,0.568-0.283v1.704
					c-0.284,0-0.568,0.283-0.852,0.283h-0.853c-0.568,0-1.137,0-1.705-0.283c-0.284-0.284-0.568-0.568-0.853-0.854
					c-0.284-0.277-0.284-0.853-0.284-1.137s0-0.854,0-1.138v-5.397h-2.273v-1.705h2.273v-2.841h1.989v2.841h2.841L298.571,139.807"
					/>
				<path id="Fill-36" fill="#1A1919" d="M309.936,148.615h-1.989v-1.704l0,0c-0.284,0.562-0.853,1.136-1.421,1.42
					s-1.42,0.567-2.273,0.567c-0.568,0-0.853,0-1.42-0.283c-0.568,0-0.853-0.284-1.137-0.568c-0.284-0.283-0.568-0.853-0.852-1.136
					c-0.284-0.568-0.284-1.138-0.284-1.705v-6.819h1.989v6.251c0,0.284,0,0.854,0.284,1.145c0,0.276,0.284,0.562,0.568,0.853
					c0.284,0.284,0.568,0.284,0.853,0.568c0.284,0,0.568,0,0.853,0s0.852,0,1.136-0.284c0.284,0,0.568-0.284,0.853-0.568
					c0.285-0.278,0.568-0.562,0.568-1.137c0.284-0.566,0.284-1.137,0.284-1.421v-5.114h1.989L309.936,148.615"/>
				<path id="Fill-37" fill="#1A1919" d="M318.744,139.807h-2.841v5.688c0,0.283,0,0.562,0.284,0.853
					c0,0.284,0.284,0.284,0.568,0.568c0.284,0,0.568,0.284,0.853,0.284h0.852c0.284,0,0.568,0,0.568-0.284v1.704
					c-0.284,0-0.568,0.283-0.853,0.283h-0.852c-0.568,0-1.137,0-1.705-0.283c-0.284-0.284-0.568-0.568-0.852-0.854
					c-0.284-0.277-0.284-0.853-0.284-1.137c0-0.568,0-0.854,0-1.137v-5.398h-2.273v-1.705h2.273v-2.841h1.705v2.841h2.841
					L318.744,139.807"/>
				<path id="Fill-38" fill="#1A1919" d="M328.688,142.365c0-0.284,0-0.854-0.284-1.145c0-0.277-0.284-0.562-0.568-0.853
					c-0.284-0.284-0.568-0.568-0.852-0.568c-0.284-0.277-0.853-0.277-1.137-0.277c-0.568,0-0.852,0-1.42,0.277
					c-0.284,0.284-0.853,0.284-1.137,0.568c-0.284,0.283-0.568,0.565-0.568,0.853s-0.284,0.568-0.284,1.145H328.688z
					 M322.438,144.073c0,0.562,0,0.853,0.284,1.137c0.284,0.284,0.568,0.567,0.852,0.853c0.284,0.285,0.853,0.568,1.137,0.568
					c0.284,0.284,0.852,0.284,1.42,0.284c0.568,0,1.137-0.284,1.705-0.568s0.853-0.562,1.137-1.137l1.42,1.137
					c-1.136,1.421-2.841,2.272-4.546,2.272c-0.852,0-1.42,0-2.273-0.568c-0.568-0.283-1.136-0.562-1.705-1.136
					c-0.569-0.569-0.853-1.138-1.137-1.705c-0.284-0.568-0.284-1.421-0.284-2.271c0-0.854,0-1.422,0.284-2.271
					c0.284-0.568,0.568-1.137,1.137-1.705c0.569-0.568,1.136-0.853,1.705-1.136c0.569-0.284,1.421-0.568,2.273-0.568
					c0.853,0,1.705,0.284,2.273,0.568c1.137,0.562,1.989,1.704,2.557,3.125c0.284,0.562,0.284,1.421,0.284,1.981v0.567
					L322.438,144.073z"/>
				<path id="Fill-39" fill="#1A1919" d="M172.137,163.674h-2.273v-1.704h2.273v-2.271c0-1.145,0.284-2.272,0.852-3.125
					c0.853-0.854,1.705-1.145,2.841-1.145h0.568c0.284,0,0.568,0,0.852,0l-0.284,1.705h-0.568h-0.568c-0.284,0-0.568,0-0.853,0.284
					c-0.284,0-0.284,0.283-0.568,0.566c0,0.282-0.284,0.562-0.284,0.854s0,0.567,0,0.854v2.271h2.273v1.704h-2.273v8.812h-1.989
					L172.137,163.674"/>
				<path id="Fill-40" fill="#1A1919" d="M180.092,167.367c0,0.562,0,0.853,0.284,1.421c0.284,0.567,0.284,0.853,0.568,1.137
					c0.284,0.284,0.568,0.568,1.136,0.854c0.853,0.277,1.989,0.277,2.841,0c0.284-0.283,0.853-0.283,1.137-0.854
					c0.284-0.284,0.568-0.854,0.568-1.137c0.284-0.568,0.284-0.854,0.284-1.421c0-0.567,0-1.137-0.284-1.421
					c-0.284-0.283-0.284-0.854-0.568-1.144c-0.284-0.277-0.568-0.562-1.137-0.853c-0.569-0.285-0.852-0.284-1.42-0.284
					s-0.853,0-1.421,0.284c-0.284,0.283-0.852,0.283-1.136,0.853c-0.284,0.284-0.568,0.854-0.568,1.144
					C180.092,166.235,180.092,166.8,180.092,167.367z M177.819,167.367c0-0.854,0-1.421,0.568-2.272
					c0.284-0.562,0.568-1.137,1.136-1.705c0.568-0.562,1.137-0.853,1.705-1.136c1.42-0.568,2.841-0.568,4.262,0
					c0.568,0.283,1.137,0.566,1.705,1.136c0.568,0.568,0.853,1.145,1.137,1.705c0.568,1.421,0.568,2.841,0,4.27
					c-0.284,0.562-0.568,1.137-1.137,1.703c-0.568,0.562-1.136,0.854-1.705,1.138c-1.42,0.562-2.841,0.562-4.262,0
					c-0.568-0.283-1.137-0.567-1.705-1.138c-0.568-0.566-0.852-1.143-1.136-1.703C177.819,168.788,177.819,167.935,177.819,167.367
					L177.819,167.367z"/>
				<path id="Fill-41" fill="#1A1919" d="M191.457,161.969h1.989v1.704l0,0c0-0.284,0.284-0.562,0.568-0.854
					c0.284-0.283,0.568-0.283,0.852-0.566c0.284-0.284,0.568-0.284,0.853-0.284c0.285,0,0.568,0,0.852-0.284
					c0.284,0,0.568,0,0.853,0.284v2.272h-0.568h-0.568c-0.853,0-1.705,0.283-2.273,0.853c-0.568,0.854-0.853,1.705-0.853,2.562
					v5.106h-1.989L191.457,161.969"/>
				<path id="Fill-42" fill="#1A1919" d="M217.312,160.264c-0.568-0.562-1.137-1.137-1.705-1.421s-1.421-0.562-1.989-0.562
					c-0.852,0-1.705,0.276-2.273,0.562c-0.568,0.284-1.42,0.854-1.705,1.421c-0.568,0.568-0.853,1.145-1.136,1.989
					c-0.568,1.42-0.568,3.125,0,4.83c0.568,1.42,1.42,2.557,2.841,3.409c0.853,0.283,1.705,0.562,2.557,0.562
					c0.853,0,1.705-0.277,2.273-0.562c0.568-0.284,1.137-0.854,1.705-1.422l1.705,1.422c-0.284,0.283-0.284,0.562-0.568,0.562
					c-0.284,0.284-0.852,0.568-1.136,0.854c-0.568,0.282-1.137,0.562-1.705,0.852c-0.852,0.284-1.42,0.284-2.273,0.284
					c-1.136,0-2.273-0.284-3.409-0.562c-0.853-0.566-1.705-1.143-2.557-1.987c-0.568-0.854-1.137-1.705-1.705-2.562
					c-0.284-0.852-0.568-1.98-0.568-2.841c0-1.137,0.284-2.271,0.568-3.409c0.284-0.853,0.852-1.981,1.705-2.558
					c0.852-0.854,1.705-1.421,2.557-1.704c1.136-0.284,2.273-0.566,3.409-0.566c1.137,0,1.989,0.282,3.125,0.566
					c0.853,0.283,1.705,1.136,2.557,1.704L217.312,160.264"/>
				<path id="Fill-43" fill="#1A1919" d="M227.256,167.367c-0.568,0-0.853,0-1.421,0s-0.852,0-1.42,0.283
					c-0.284,0-0.853,0.277-0.853,0.562c-0.284,0.284-0.284,0.568-0.284,0.854c0,0.562,0.284,1.138,0.568,1.421
					c0.568,0.284,1.137,0.284,1.705,0.284c0.568,0,0.852,0,1.42-0.284c0.284-0.283,0.568-0.283,0.853-0.567
					c0.284-0.284,0.284-0.562,0.568-0.854c0-0.283,0-0.854,0-1.144v-0.562L227.256,167.367L227.256,167.367z M221.574,163.389
					c0.568-0.562,1.137-0.853,1.989-1.136c0.568-0.284,1.421-0.284,2.273-0.284c0.568,0,1.421,0,1.989,0.284
					c0.568,0.283,0.852,0.566,1.42,0.854c0.284,0.277,0.568,0.562,0.853,1.138c0.284,0.283,0.284,0.853,0.284,1.421v5.397
					c0,0.277,0,0.562,0,0.854s0,0.566,0,0.852h-2.273c0-0.562,0-1.136,0-1.698l0,0c-0.284,0.562-0.852,1.139-1.42,1.423
					c-0.568,0.275-1.42,0.562-1.989,0.562c-0.569,0-0.853,0-1.421-0.284c-0.284,0-0.852-0.275-1.136-0.562
					c-0.284-0.284-0.568-0.568-0.853-0.854c-0.285-0.28-0.284-0.853-0.284-1.421c0-0.562,0-1.137,0.568-1.705
					c0.284-0.562,0.853-0.852,1.137-1.136c0.568-0.284,1.136-0.562,1.989-0.562c0.853,0,1.42-0.282,2.273-0.282h1.136v-0.568
					c0-0.284,0-0.563,0-0.853s-0.284-0.568-0.568-0.568c-0.284-0.284-0.568-0.284-0.853-0.567c-0.284,0-0.853-0.278-1.136-0.278
					c-0.284,0-0.568,0-1.137,0c-0.284,0-0.568,0.278-0.853,0.278s-0.568,0.283-0.568,0.283l-0.568,0.568L221.574,163.389
					L221.574,163.389z"/>
				<path id="Fill-44" fill="#1A1919" d="M232.938,161.969h1.989v1.704l0,0c0.284-0.562,0.852-1.137,1.42-1.42
					c0.568-0.284,1.42-0.568,2.273-0.568c0.568,0,0.853,0,1.421,0.284s0.852,0.284,1.136,0.567c0.284,0.283,0.568,0.853,0.853,1.137
					c0.284,0.854,0.284,1.421,0.284,1.989v6.817h-1.989v-6.25c0-0.284,0-0.854-0.284-1.144c0-0.284-0.284-0.562-0.568-0.854
					c-0.284-0.285-0.568-0.283-0.853-0.567c-0.284,0-0.568,0-0.853,0c-0.284,0-0.852,0-1.136,0.284
					c-0.284,0-0.568,0.283-0.853,0.563c-0.285,0.281-0.568,0.565-0.568,1.141c-0.284,0.562-0.284,1.138-0.284,1.422v5.396h-1.989
					L232.938,161.969"/>
				<path id="Fill-45" fill="#1A1919" d="M252.827,164.81c-0.284-0.276-0.852-0.562-1.136-0.853
					c-0.568-0.284-0.853-0.284-1.421-0.284s-0.852,0-1.42,0.284c-0.284,0.284-0.853,0.567-0.853,0.853
					c-0.284,0.284-0.568,0.854-0.568,1.145c0,0.562-0.284,0.853-0.284,1.42c0,0.562,0,0.853,0.284,1.421
					c0.284,0.284,0.284,0.854,0.568,1.137c0.284,0.284,0.568,0.568,1.137,0.854c0.569,0.284,0.852,0.282,1.42,0.282
					c0.568,0,0.853,0,1.421-0.282c0.284-0.284,0.852-0.568,1.136-0.854l1.421,1.421c-0.568,0.568-1.137,0.854-1.705,1.144
					c-0.568,0.277-1.42,0.277-2.273,0.277c-0.852,0-1.42,0-2.273-0.277c-0.568-0.283-1.136-0.567-1.705-1.144
					c-0.569-0.562-0.853-1.137-1.137-1.703c-0.284-0.562-0.284-1.423-0.284-2.271c0-0.854,0.284-1.42,0.284-2.271
					c0.284-0.562,0.568-1.138,1.137-1.7c0.569-0.566,1.136-0.854,1.705-1.142c0.568-0.283,1.421-0.283,2.273-0.283
					c0.853,0,1.421,0,2.273,0.283c0.568,0.283,1.421,0.567,1.705,1.142L252.827,164.81"/>
				<path id="Fill-46" fill="#1A1919" d="M263.624,166.235c0-0.567,0-0.854-0.284-1.144c0-0.284-0.284-0.562-0.568-0.854
					s-0.568-0.567-0.852-0.567c-0.284-0.284-0.853-0.284-1.421-0.284s-0.852,0-1.42,0.284c-0.284,0.284-0.853,0.284-1.137,0.567
					c-0.284,0.283-0.568,0.562-0.568,0.854c-0.284,0.284-0.284,0.568-0.284,1.144H263.624z M257.373,167.935
					c0,0.568,0,0.854,0.284,1.145c0.284,0.283,0.568,0.562,0.853,0.853c0.285,0.285,0.853,0.568,1.137,0.568s0.852,0.284,1.42,0.284
					s1.136,0,1.705-0.568c0.568-0.284,0.853-0.566,1.137-1.137l1.42,1.137c-1.136,1.421-2.841,2.271-4.546,2.271
					c-0.853,0-1.42,0-2.273-0.566c-1.42-0.568-2.273-1.421-2.841-2.842s-0.568-2.842,0-4.27c0.284-0.562,0.568-1.137,1.137-1.698
					c0.568-0.566,1.136-0.854,1.705-1.143c0.569-0.284,1.42-0.562,2.273-0.562c0.853,0,1.705,0.276,2.273,0.562
					c0.568,0.284,1.137,0.854,1.705,1.143c0.284,0.562,0.853,1.138,0.853,1.698c0.284,0.568,0.284,1.428,0.284,1.989v1.136H257.373z
					"/>
				<path id="Fill-47" fill="#1A1919" d="M268.17,161.969h1.989v1.704l0,0c0-0.284,0.284-0.562,0.568-0.854
					c0.284-0.284,0.568-0.283,0.853-0.566c0.284-0.284,0.568-0.284,0.852-0.284c0.284,0,0.568,0,0.853-0.284
					c0.284,0,0.568,0,0.853,0.284v2.272h-0.568H273c-0.853,0-1.705,0.283-2.273,0.853c-0.568,0.854-0.853,1.705-0.853,2.562v5.106
					h-1.989L268.17,161.969"/>
				<path id="Fill-48" fill="#1A1919" d="M285.217,163.674h2.841c0.284,0,0.852,0,1.136,0c0.284,0,0.853-0.284,1.137-0.284
					c0.284-0.277,0.568-0.562,0.853-0.853c0.284-0.283,0.284-0.854,0.284-1.137c0-0.567,0-0.854-0.284-1.421
					c-0.284-0.283-0.568-0.567-0.853-0.567c-0.284-0.284-0.568-0.284-1.137-0.284c-0.284,0-0.852,0-1.136,0h-2.841V163.674z
					 M282.944,156.859h5.398c0.852,0,1.705,0,2.557,0.562c0.568,0.283,1.136,0.566,1.42,1.136c0.284,0.284,0.568,0.854,0.853,1.426
					c0,0.563,0.284,1.14,0.284,1.424c0,0.562,0,0.853-0.284,1.42c-0.284,0.562-0.284,0.853-0.853,1.137
					c-0.284,0.284-0.853,0.854-1.136,0.854c-0.568,0.283-1.137,0.283-1.705,0.567l4.546,7.104h-2.557l-3.978-6.817h-2.273v6.817
					h-2.273L282.944,156.859L282.944,156.859z"/>
				<path id="Fill-49" fill="#1A1919" d="M303.401,166.235c0-0.283,0-0.854-0.284-1.144c0-0.284-0.284-0.562-0.568-0.854
					c-0.284-0.284-0.568-0.567-0.853-0.567c-0.284-0.284-0.852-0.284-1.42-0.284c-0.568,0-0.853,0-1.421,0.284
					c-0.284,0.284-0.852,0.284-1.136,0.567c-0.284,0.283-0.568,0.562-0.568,0.854c-0.284,0.284-0.284,0.568-0.284,1.144H303.401z
					 M297.15,167.935c0,0.568,0,0.854,0.284,1.145c0.284,0.283,0.568,0.562,0.853,0.853c0.285,0.285,0.852,0.568,1.136,0.568
					c0.284,0,0.853,0.284,1.421,0.284c0.568,0,1.136,0,1.705-0.568c0.568-0.284,0.853-0.566,1.136-1.137l1.421,1.137
					c-1.137,1.421-2.841,2.271-4.546,2.271c-0.853,0-1.421,0-2.273-0.566c-1.421-0.568-2.273-1.421-2.841-2.842
					c-0.568-1.421-0.568-2.842,0-4.27c0.284-0.562,0.568-1.137,1.136-1.698c0.568-0.566,1.137-0.854,1.705-1.143
					c0.568-0.284,1.42-0.562,2.273-0.562c0.852,0,1.705,0.276,2.273,0.562s1.136,0.854,1.705,1.143
					c0.284,0.562,0.853,1.138,0.853,1.698c0.284,0.568,0.284,1.428,0.284,1.989v1.136H297.15z"/>
				<path id="Fill-50" fill="#1A1919" d="M313.629,164.53c-0.284-0.283-0.568-0.567-0.852-0.854
					c-0.284-0.285-0.853-0.284-1.137-0.284c-0.568,0-0.853,0-1.137,0.284c-0.284,0.284-0.568,0.568-0.568,0.854
					c0,0.278,0,0.562,0.284,0.854c0.284,0.284,0.568,0.284,0.568,0.568c0.284,0,0.568,0.283,0.853,0.283h0.853
					c0.284,0,0.852,0.277,1.136,0.277c0.284,0,0.568,0.284,0.853,0.568c0.284,0.282,0.568,0.565,0.568,0.852
					c0.284,0.284,0.284,0.854,0.284,1.145c0,1.137-0.568,1.981-1.421,2.558c-0.284,0.284-0.853,0.567-1.42,0.567
					c-0.568,0-1.137,0.276-1.421,0.276c-0.852,0-1.42,0-2.273-0.276c-0.568-0.283-1.42-0.854-1.705-1.421l1.42-1.144
					c0.284,0.284,0.568,0.568,1.137,0.854c0.569,0.285,0.853,0.283,1.42,0.283c0.284,0,0.568,0,0.853,0c0.285,0,0.568,0,0.568-0.283
					c0.284,0,0.284-0.284,0.568-0.284c0-0.284,0.284-0.284,0.284-0.568c0-0.277,0-0.562-0.284-0.562
					c-0.284-0.284-0.568-0.284-0.568-0.568l-1.137-0.565h-0.852l-1.137-0.279c-0.284,0-0.568-0.284-0.853-0.567
					c-0.284-0.284-0.568-0.562-0.568-0.853s-0.284-0.854-0.284-1.145c0-0.562,0-0.853,0.284-1.421
					c0.284-0.282,0.568-0.853,0.852-0.853c0.284-0.284,0.853-0.567,1.137-0.567c0.568,0,0.852-0.284,1.42-0.284s1.421,0,1.989,0.284
					c0.568,0.283,1.137,0.854,1.705,1.42L313.629,164.53"/>
				<path id="Fill-51" fill="#1A1919" d="M325.562,166.235c0-0.283,0-0.854-0.284-1.144c0-0.284-0.284-0.562-0.568-0.854
					s-0.568-0.567-0.853-0.567c-0.284-0.284-0.853-0.284-1.42-0.284c-0.568,0-0.853,0-1.421,0.284
					c-0.284,0.284-0.852,0.284-1.136,0.567c-0.284,0.283-0.568,0.562-0.568,0.854c-0.284,0.284-0.284,0.568-0.284,1.144H325.562z
					 M319.312,167.935c0,0.568,0,0.854,0.284,1.145c0.284,0.283,0.568,0.562,0.852,0.853c0.284,0.284,0.568,0.568,1.137,0.568
					s0.853,0.284,1.42,0.284c0.568,0,1.137,0,1.705-0.568c0.568-0.284,0.852-0.566,1.136-1.137l1.421,1.137
					c-1.705,1.988-4.546,2.559-6.819,1.705c-0.568-0.284-1.136-0.568-1.705-1.137c-0.569-0.569-0.852-1.145-1.136-1.705
					c-0.284-0.568-0.284-1.421-0.284-2.272c0-0.853,0-1.421,0.568-2.271c0.284-0.568,0.568-1.145,1.136-1.705
					c1.137-1.137,2.557-1.704,3.978-1.704c0.853,0,1.705,0.284,2.273,0.565c1.137,0.563,1.989,1.699,2.557,3.125
					c0.284,0.563,0.284,1.424,0.284,1.984v1.141L319.312,167.935L319.312,167.935z"/>
				<path id="Fill-52" fill="#1A1919" d="M335.507,167.367c-0.568,0-0.852,0-1.42,0s-0.853,0-1.421,0.283
					c-0.284,0-0.852,0.277-0.852,0.562c-0.568,0.568-0.568,1.705,0,2.272l0,0c0.852,0.562,1.989,0.562,3.125,0
					c0.284-0.283,0.568-0.283,0.853-0.567s0.284-0.562,0.568-0.854c0-0.283,0.284-0.854,0.284-1.144v-0.562L335.507,167.367
					L335.507,167.367z M329.825,163.389c0.568-0.562,1.136-0.853,1.989-1.136c0.568-0.284,1.42-0.284,2.273-0.284
					c0.568,0,1.42,0,1.989,0.284c0.568,0.283,0.853,0.566,1.42,0.854c0.284,0.277,0.568,0.562,0.853,1.138
					c0.284,0.283,0.284,0.853,0.284,1.421v5.397c0,0.277,0,0.562,0,0.854s0,0.566,0,0.852h-1.705c0-0.562,0-1.136,0-1.698l0,0
					c-0.284,0.562-0.853,1.139-1.705,1.423c-0.568,0.275-1.42,0.562-1.989,0.562c-0.568,0-0.852,0-1.42-0.284
					c-0.284,0-0.853-0.275-1.137-0.562c-0.284-0.284-0.568-0.568-0.852-0.854c-0.284-0.279-0.284-0.853-0.284-1.421
					c0-0.562,0-1.137,0.568-1.705c0.284-0.562,0.853-0.852,1.137-1.136c0.568-0.284,1.137-0.562,1.705-0.562
					c0.853,0,1.421-0.282,2.273-0.282h1.421v-0.568c0-0.284,0-0.563-0.284-0.853c0-0.284-0.284-0.568-0.568-0.568
					c-0.284-0.284-0.568-0.284-0.853-0.567c-0.284,0-0.852-0.278-1.136-0.278c-0.284,0-0.568,0-0.853,0s-0.568,0.278-0.852,0.278
					s-0.568,0.283-0.568,0.283l-0.568,0.568L329.825,163.389L329.825,163.389z"/>
				<path id="Fill-53" fill="#1A1919" d="M341.758,161.969h1.989v1.704l0,0c0-0.284,0.284-0.562,0.568-0.854
					c0.284-0.283,0.568-0.283,0.852-0.566c0.284-0.284,0.568-0.284,0.853-0.284s0.568,0,0.853-0.284c0.284,0,0.568,0,0.852,0.284
					v2.272h-0.567h-0.568c-0.853,0-1.705,0.283-2.273,0.853c-0.568,0.854-0.853,1.705-0.853,2.562v5.106h-1.705L341.758,161.969"/>
				<path id="Fill-54" fill="#1A1919" d="M356.532,164.81c-0.284-0.276-0.853-0.562-1.138-0.853
					c-0.567-0.284-0.854-0.284-1.42-0.284c-0.854,0-1.99,0.284-2.558,1.137c-0.284,0.284-0.567,0.854-0.567,1.145
					c-0.285,0.562-0.285,0.853-0.285,1.42c0,0.562,0,0.853,0.285,1.421c0,0.567,0.283,0.854,0.567,1.137
					c0.284,0.284,0.567,0.568,1.138,0.854c0.566,0.284,0.853,0.282,1.42,0.282s0.853,0,1.42-0.282
					c0.285-0.284,0.854-0.568,1.138-0.854l1.42,1.421c-0.568,0.568-1.138,0.854-1.705,1.144c-0.567,0.277-1.421,0.277-2.272,0.277
					c-0.854,0-1.422,0-2.272-0.277c-0.568-0.283-1.138-0.567-1.705-1.144c-0.567-0.562-0.853-1.137-1.136-1.703
					c-0.284-0.562-0.284-1.423-0.284-2.271c0-0.854,0-1.42,0.284-2.271c0.283-0.562,0.568-1.138,1.136-1.7
					c0.567-0.566,1.137-0.854,1.705-1.142c1.42-0.562,3.125-0.562,4.546,0c0.566,0.283,1.42,0.567,1.705,1.142L356.532,164.81"/>
				<path id="Fill-55" fill="#1A1919" d="M359.941,155.719h1.987v7.955l0,0c0.283-0.562,0.854-1.137,1.422-1.42
					c0.566-0.284,1.421-0.568,2.271-0.568c0.566,0,0.854,0,1.42,0.284s0.854,0.284,1.139,0.567c0.282,0.283,0.566,0.853,0.854,1.137
					c0.281,0.568,0.281,1.137,0.281,1.705v6.817h-1.986v-6.25c0-0.283,0-0.854-0.284-1.144c0-0.277-0.282-0.562-0.564-0.854
					c-0.285-0.283-0.567-0.283-0.854-0.567c-0.284,0-0.566,0-0.854,0c-0.285,0-0.853,0-1.136,0.284
					c-0.284,0-0.567,0.283-0.854,0.567c-0.285,0.278-0.568,0.562-0.568,1.138c-0.283,0.566-0.283,1.137-0.283,1.704v5.396h-1.989
					v-16.753"/>
				<path id="Fill-56" fill="#1A1919" d="M216.459,90.37c0.568,11.081-8.239,20.457-19.32,21.021c-0.284,0-0.568,0-0.852,0
					c-11.365,0-20.457-9.376-20.173-20.457c0-0.276,0-0.562,0-0.562v-0.284c-0.568-11.081,8.24-20.457,19.32-21.021
					c0.284,0,0.568,0,0.853,0c11.365,0,20.457,9.375,20.172,20.455C216.459,89.802,216.459,90.086,216.459,90.37L216.459,90.37z
					 M196.287,59.399c-16.764-0.277-30.97,13.069-31.254,29.84c0,0.276,0,0.562,0,0.852v0.284
					c-0.284,16.764,13.07,30.396,29.833,30.686c0.284,0,0.853,0,1.137,0c16.763,0.284,30.969-13.062,31.253-29.833
					c0-0.276,0-0.562,0-0.853V90.09c0.284-16.765-13.07-30.398-29.833-30.688C197.139,59.399,196.855,59.399,196.287,59.399z"/>
				<polygon id="Fill-57" fill="#1A1919" points="236.632,119.919 247.145,119.919 247.145,60.253 236.632,60.253 				"/>
				<path id="Fill-58" fill="#1A1919" d="M286.638,111.4c-11.365,0-19.604-9.659-19.604-21.312V89.8
					c0-11.646,8.24-21.023,19.604-21.023c6.251,0,12.217,2.848,16.763,7.394l6.819-7.671c-6.251-6.251-14.49-9.66-23.298-9.376
					c-16.763-0.284-30.401,13.063-30.685,29.549c0,0.284,0,0.854,0,1.136v0.284c-0.284,16.479,12.786,30.401,29.265,30.688
					c0.284,0,0.568,0,1.136,0c9.092,0.277,18.184-3.692,24.15-10.52l-6.819-6.812C298.571,108.275,294.025,111.4,286.638,111.4"/>
				<path id="Fill-59" fill="#1A1919" d="M329.541,89.802V69.914h15.058c7.67,0,12.217,3.41,12.217,9.938l0,0
					c0,5.973-4.831,9.943-12.217,9.943L329.541,89.802L329.541,89.802z M353.407,97.473c8.239-2.271,14.206-8.231,14.206-17.896
					v-0.284c0-4.83-1.705-9.376-4.83-12.785c-4.83-4.262-10.797-6.251-17.047-5.967h-26.708v59.666h10.513v-20.74h13.069
					l14.774,20.74h12.218L353.407,97.473L353.407,97.473z"/>
			</g>
		</g>
	</g>
</g>
</svg>
