<svg xmlns="http://www.w3.org/2000/svg" viewBox="0 0 1030.15 351.8"><defs><style>.cls-1{fill:#65bc46;}.cls-2{fill:#231f20;}.cls-3,.cls-4{isolation:isolate;}.cls-3{font-size:130px;font-family:Montserrat-Regular, Montserrat;}.cls-3,.cls-5{fill:#676767;}</style></defs><title>Layer 1</title><g id="Layer_2" data-name="Layer 2"><g id="Layer_1-2" data-name="Layer 1"><path class="cls-1" d="M206.8,38.3V0h-.6a201.46,201.46,0,0,0-26.9,1.8l4.9,38a165.59,165.59,0,0,1,22.2-1.5Z"/><path class="cls-1" d="M78.6,189.2l37.4,4.9a90.27,90.27,0,0,1,6-22.8L87.2,156.8,51.5,142a168,168,0,0,0-7,20.7L7,152.7a198.69,198.69,0,0,0-5.2,26.4l38.5,5.1Z"/><path class="cls-1" d="M260.2,7.2l-10,36.9A169.91,169.91,0,0,1,271,51.2l14.8-35.3A203.2,203.2,0,0,0,260.2,7.2Z"/><path class="cls-1" d="M127.9,308.1A121.6,121.6,0,0,1,115.2,297L87.9,324.3a174.63,174.63,0,0,0,16.5,14.5Z"/><path class="cls-1" d="M81.9,239.4l36.5-9.7a94.66,94.66,0,0,1-3.2-23.7H77.5a120.41,120.41,0,0,0,1.2,17l-38.3,5a176.37,176.37,0,0,1-1.5-21.9H0v.1a206.64,206.64,0,0,0,6.9,53.3l37.7-10Z"/><path class="cls-1" d="M134,261.3a106.42,106.42,0,0,1-6.6-9.9,80.08,80.08,0,0,1-5.2-10.6L87.4,255.2a130.55,130.55,0,0,0,7.4,15L61.3,289.6,27.5,309.1a203.06,203.06,0,0,0,32.8,42.7l27.6-27.6a160.5,160.5,0,0,1-14.4-16.5l30.7-23.5Z"/><path class="cls-1" d="M230.2,117.8a86.81,86.81,0,0,1,11.2,3.8L256,86.8a114.52,114.52,0,0,0-15.9-5.4Z"/><path class="cls-1" d="M189.2,78.1l-5-38.3a174,174,0,0,0-21.5,4.3L152.9,7a197.91,197.91,0,0,0-25.6,8.7L142,51.1l14.8,35.7a141.38,141.38,0,0,0-15.1,7.5L160.6,127a86.77,86.77,0,0,1,21.8-9.1,110.14,110.14,0,0,1,11.7-2.4,84.7,84.7,0,0,1,12.3-.8h.4V76.9h-.4A125.4,125.4,0,0,0,189.2,78.1Z"/><path class="cls-1" d="M206.8,76.9a116.21,116.21,0,0,1,16.7,1.2l5.1-38.3a161.18,161.18,0,0,0-21.9-1.5Z"/><path class="cls-1" d="M104.2,73.1,80.7,42.6A213.69,213.69,0,0,0,60.4,60.4L87.7,87.7,115,115a133.11,133.11,0,0,1,26.7-20.6L122.4,60.9A175,175,0,0,0,104.2,73.1Z"/><path class="cls-1" d="M133.8,150.7a97.15,97.15,0,0,1,7.9-9.1L115,115a122.68,122.68,0,0,0-11.1,12.8Z"/><path class="cls-1" d="M42.7,80.6a198.73,198.73,0,0,0-15,22.4l33.5,19.4,33.5,19.4a132,132,0,0,1,9.3-14.1L73.4,104.2Z"/><path class="cls-1" d="M309.8,27.9l-19.2,33L271.2,94.3a122.16,122.16,0,0,1,14,9.4l23.6-30.6,23.4-30.2A208.2,208.2,0,0,0,309.8,27.9Z"/><path class="cls-2" d="M290.5,60.9a179.13,179.13,0,0,0-19.6-9.8L256,86.8a141.38,141.38,0,0,1,15.1,7.5Z"/><path class="cls-2" d="M223.6,78.1l-5,37.4a96.69,96.69,0,0,1,11.7,2.3l9.8-36.4A120.45,120.45,0,0,0,223.6,78.1Z"/><path class="cls-2" d="M206.4,38.3a165.59,165.59,0,0,0-22.2,1.5l5,38.3a123.24,123.24,0,0,1,17.2-1.2h.4V38.3Z"/><path class="cls-2" d="M51.5,142l35.7,14.8a124.07,124.07,0,0,1,7.4-15.1L61.1,122.3A188.36,188.36,0,0,0,51.5,142Z"/><path class="cls-2" d="M87.9,324.3,115.2,297a121.6,121.6,0,0,1-11.1-12.7L73.4,307.8A174.63,174.63,0,0,0,87.9,324.3Z"/><path class="cls-2" d="M94.6,141.8l32.6,18.9a96,96,0,0,1,6.6-10l-29.9-23A132,132,0,0,0,94.6,141.8Z"/><path class="cls-2" d="M77.5,205.9v.2h37.7v-.2a93.56,93.56,0,0,1,.8-11.8l-37.4-4.9A132.56,132.56,0,0,0,77.5,205.9Z"/><path class="cls-2" d="M51.6,270l35.7-14.8a148.73,148.73,0,0,1-5.4-15.9l-37.3,10A162.48,162.48,0,0,0,51.6,270Z"/><path class="cls-2" d="M127.7,103.8l23,29.9a96.82,96.82,0,0,1,10-6.7l-19-32.6A126.79,126.79,0,0,0,127.7,103.8Z"/><path class="cls-2" d="M205.6,154.7c-29.6,0-50.4,22.7-50.4,49.8v.3c0,27.1,20.6,49.5,50.2,49.5s50.4-22.7,50.4-49.8v-.3C255.8,177.1,235.2,154.7,205.6,154.7Zm32.4,50c0,18.7-13.3,33.9-32.4,33.9s-32.7-15.5-32.7-34.2v-.3c0-18.7,13.3-33.9,32.4-33.9S238,185.8,238,204.5Z"/><rect class="cls-2" x="270.3" y="156.4" width="16.9" height="96.2"/><path class="cls-2" d="M351.3,238.7c-18.4,0-31.8-15.4-31.8-34.2v-.3c0-18.8,13.3-33.9,31.8-33.9,11,0,19.2,4.8,26.9,11.9l10.9-12.5c-9.2-8.8-19.9-15-37.7-15-29.1,0-49.6,22.4-49.6,49.8v.3c0,27.6,20.9,49.5,48.9,49.5,18,0,29-6.6,39-17.1l-10.9-11C370.7,233.9,363.1,238.7,351.3,238.7Z"/><path class="cls-2" d="M459.1,216.2c13.5-3.8,22.9-13.3,22.9-29.2v-.3a29.26,29.26,0,0,0-8-20.8c-6.2-6-15.7-9.6-27.8-9.6H403.4v96.3h16.9V219.1h21.2l23.6,33.5H485Zm-38.8-12.1V171.8h24.6c12.5,0,19.9,5.6,19.9,15.9v.3c0,9.8-7.7,16.1-19.8,16.1Z"/><text class="cls-3" transform="translate(492.82 252.6)">-</text><g class="cls-4"><path class="cls-5" d="M571.64,175.77v27.69h43.94v14.3H571.64V252.6h-16.9v-91h66.43v14.17Z"/><path class="cls-5" d="M653.93,247.85a44.68,44.68,0,0,1-17.55-16.77,48.34,48.34,0,0,1,0-48,44.72,44.72,0,0,1,17.55-16.76,55.05,55.05,0,0,1,50.18,0,44.92,44.92,0,0,1,17.55,16.7,48.59,48.59,0,0,1,0,48.1,44.92,44.92,0,0,1-17.55,16.7,55.05,55.05,0,0,1-50.18,0ZM695.4,235a29.66,29.66,0,0,0,11.44-11.44,34.58,34.58,0,0,0,0-32.89,29.73,29.73,0,0,0-11.44-11.44,34.85,34.85,0,0,0-32.76,0,29.66,29.66,0,0,0-11.44,11.44,34.58,34.58,0,0,0,0,32.89A29.6,29.6,0,0,0,662.64,235a34.77,34.77,0,0,0,32.76,0Z"/><path class="cls-5" d="M805.51,252.6,786.92,226a33.69,33.69,0,0,1-3.51.13H762.87V252.6H746v-91h37.44a50.38,50.38,0,0,1,20.6,3.9,30,30,0,0,1,13.46,11.18A31.28,31.28,0,0,1,822.15,194a30.8,30.8,0,0,1-5,17.68,29.75,29.75,0,0,1-14.36,11l20.93,29.9Zm-6.11-72q-5.73-4.68-16.77-4.68H762.87v36.27h19.76q11,0,16.77-4.75T805.12,194Q805.12,185.26,799.4,180.58Z"/><path class="cls-5" d="M924.59,252.6l-.13-60.32-29.9,49.92H887l-29.9-49.14V252.6H841v-91h13.91l36.14,60.32,35.49-60.32h13.91l.13,91Z"/><path class="cls-5" d="M973,250.91q-9.81-3-15.53-7.93l5.85-13.13A45.77,45.77,0,0,0,977,237.06a49.75,49.75,0,0,0,16.32,2.8q10.14,0,15.14-3.25t5-8.58a8.33,8.33,0,0,0-2.8-6.44,19.51,19.51,0,0,0-7.08-4q-4.29-1.42-11.7-3.25a136.15,136.15,0,0,1-16.84-4.94A27.85,27.85,0,0,1,964,201.71q-4.62-5.28-4.61-14.24a24.24,24.24,0,0,1,4.09-13.71q4.1-6.18,12.35-9.82t20.22-3.64a65.22,65.22,0,0,1,16.38,2.08,45.39,45.39,0,0,1,13.91,6l-5.33,13.13a52.56,52.56,0,0,0-12.48-5.33A46.87,46.87,0,0,0,996,174.34q-10,0-14.89,3.38a10.41,10.41,0,0,0-4.87,9,8.12,8.12,0,0,0,2.79,6.37,20.08,20.08,0,0,0,7.09,3.9q4.29,1.42,11.7,3.25a123.49,123.49,0,0,1,16.64,4.87,28.51,28.51,0,0,1,11.11,7.74q4.62,5.2,4.62,14a24,24,0,0,1-4.1,13.65q-4.09,6.11-12.41,9.75t-20.28,3.64A69.55,69.55,0,0,1,973,250.91Z"/></g></g></g></svg>